<svg width="94" height="29" viewBox="0 0 94 29" fill="none" xmlns="http://www.w3.org/2000/svg">
<path d="M0.984 23V20.912L11.832 7.664L12.192 8.84H1.152V6.2H15V8.288L4.152 21.536L3.768 20.36H15.312V23H0.984ZM18.7271 27.824C18.1031 27.824 17.4791 27.72 16.8551 27.512C16.2311 27.304 15.7111 27.016 15.2951 26.648L16.4951 24.44C16.7991 24.712 17.1431 24.928 17.5271 25.088C17.9111 25.248 18.3031 25.328 18.7031 25.328C19.2471 25.328 19.6871 25.192 20.0231 24.92C20.3591 24.648 20.6711 24.192 20.9591 23.552L21.7031 21.872L21.9431 21.512L26.7911 10.184H29.6711L23.6711 24.032C23.2711 24.992 22.8231 25.752 22.3271 26.312C21.8471 26.872 21.3031 27.264 20.6951 27.488C20.1031 27.712 19.4471 27.824 18.7271 27.824ZM21.3671 23.456L15.5831 10.184H18.7031L23.4071 21.248L21.3671 23.456ZM38.8181 10.04C39.8421 10.04 40.7541 10.24 41.5541 10.64C42.3701 11.04 43.0101 11.656 43.4741 12.488C43.9381 13.304 44.1701 14.36 44.1701 15.656V23H41.1701V16.04C41.1701 14.904 40.8981 14.056 40.3541 13.496C39.8261 12.936 39.0821 12.656 38.1221 12.656C37.4181 12.656 36.7941 12.8 36.2501 13.088C35.7061 13.376 35.2821 13.808 34.9781 14.384C34.6901 14.944 34.5461 15.656 34.5461 16.52V23H31.5461V10.184H34.4021V13.64L33.8981 12.584C34.3461 11.768 34.9941 11.144 35.8421 10.712C36.7061 10.264 37.6981 10.04 38.8181 10.04ZM52.7998 23.168C51.3918 23.168 50.3038 22.808 49.5358 22.088C48.7678 21.352 48.3838 20.272 48.3838 18.848V7.352H51.3838V18.776C51.3838 19.384 51.5358 19.856 51.8398 20.192C52.1598 20.528 52.5998 20.696 53.1598 20.696C53.8318 20.696 54.3918 20.52 54.8398 20.168L55.6798 22.304C55.3278 22.592 54.8958 22.808 54.3838 22.952C53.8718 23.096 53.3438 23.168 52.7998 23.168ZM46.2718 12.68V10.28H54.8158V12.68H46.2718ZM58.1477 23V10.184H61.0037V13.712L60.6677 12.68C61.0517 11.816 61.6517 11.16 62.4677 10.712C63.2997 10.264 64.3317 10.04 65.5637 10.04V12.896C65.4357 12.864 65.3157 12.848 65.2037 12.848C65.0917 12.832 64.9797 12.824 64.8677 12.824C63.7317 12.824 62.8277 13.16 62.1557 13.832C61.4837 14.488 61.1477 15.472 61.1477 16.784V23H58.1477ZM75.0906 23V20.408L74.9226 19.856V15.32C74.9226 14.44 74.6586 13.76 74.1306 13.28C73.6026 12.784 72.8026 12.536 71.7306 12.536C71.0106 12.536 70.2986 12.648 69.5946 12.872C68.9066 13.096 68.3226 13.408 67.8426 13.808L66.6666 11.624C67.3546 11.096 68.1706 10.704 69.1146 10.448C70.0746 10.176 71.0666 10.04 72.0906 10.04C73.9466 10.04 75.3786 10.488 76.3866 11.384C77.4106 12.264 77.9226 13.632 77.9226 15.488V23H75.0906ZM71.0586 23.168C70.0986 23.168 69.2586 23.008 68.5386 22.688C67.8186 22.352 67.2586 21.896 66.8586 21.32C66.4746 20.728 66.2826 20.064 66.2826 19.328C66.2826 18.608 66.4506 17.96 66.7866 17.384C67.1386 16.808 67.7066 16.352 68.4906 16.016C69.2746 15.68 70.3146 15.512 71.6106 15.512H75.3306V17.504H71.8266C70.8026 17.504 70.1146 17.672 69.7626 18.008C69.4106 18.328 69.2346 18.728 69.2346 19.208C69.2346 19.752 69.4506 20.184 69.8826 20.504C70.3146 20.824 70.9146 20.984 71.6826 20.984C72.4186 20.984 73.0746 20.816 73.6506 20.48C74.2426 20.144 74.6666 19.648 74.9226 18.992L75.4266 20.792C75.1386 21.544 74.6186 22.128 73.8666 22.544C73.1306 22.96 72.1946 23.168 71.0586 23.168Z" fill="black"/>
<path d="M93.2502 13.875H89.644L90.9753 8.29766C91.1002 7.64453 90.7409 7 90.2503 7H85.7503C85.3753 7 85.0566 7.38242 85.0066 7.89375L84.0066 18.2062C83.9472 18.825 84.2972 19.375 84.7503 19.375H88.4597L87.019 27.7324C86.9065 28.3855 87.269 29 87.7472 29C88.0097 29 88.2597 28.8109 88.3972 28.4844L93.8971 15.4219C94.1877 14.7387 93.8283 13.875 93.2502 13.875Z" fill="#5E2AE1"/>
</svg>
